<svg width="20" height="9" viewBox="0 0 20 9" fill="none" xmlns="http://www.w3.org/2000/svg">
<path d="M19.2184 3.40625L17.0309 0.828125C16.9788 0.723958 16.8746 0.671875 16.7184 0.671875C16.5621 0.671875 16.4188 0.711041 16.2884 0.789375C16.158 0.867708 16.0928 0.985 16.0928 1.14125C16.0928 1.2975 16.1449 1.42771 16.249 1.53188L18.2803 3.95375H0.936523C0.780273 3.95375 0.650065 4.00583 0.545898 4.11C0.441732 4.21417 0.389648 4.34437 0.389648 4.50062C0.389648 4.65687 0.441732 4.80021 0.545898 4.93062C0.650065 5.06104 0.780273 5.12625 0.936523 5.12625H18.2803L16.249 7.47C16.1449 7.57417 16.0928 7.70438 16.0928 7.86063C16.0928 8.01688 16.1449 8.14708 16.249 8.25125C16.3532 8.35542 16.4834 8.4075 16.6396 8.4075C16.7959 8.4075 16.9261 8.35542 17.0303 8.25125L19.2178 5.67313C19.4782 5.30854 19.6084 4.91792 19.6084 4.50125C19.6084 4.08458 19.4782 3.72 19.2178 3.4075L19.2184 3.40625Z" fill="white"/>
</svg>
