<svg width="33" height="32" viewBox="0 0 33 32" fill="none" xmlns="http://www.w3.org/2000/svg">
<path d="M25.0003 30.625C22.917 30.625 20.5003 29.9167 17.7503 28.5C15.0003 27.0833 12.292 25.0833 9.62534 22.5C7.20867 20.25 5.27101 17.9373 3.81234 15.562C2.35367 13.1867 1.47867 10.999 1.18734 8.999C0.896007 6.999 1.29201 5.45733 2.37534 4.374C2.45867 4.20733 2.62534 4.08233 2.87534 3.999L7.00034 1.624C7.50034 1.374 8.02134 1.31134 8.56334 1.436C9.10534 1.56067 9.50134 1.83167 9.75134 2.249L12.8763 6.624C13.2097 7.124 13.314 7.624 13.1893 8.124C13.0647 8.624 12.7937 9.04067 12.3763 9.374L10.5013 10.624C10.418 10.624 10.3763 10.6657 10.3763 10.749L10.5013 10.874C11.5847 12.4573 12.8763 14.0407 14.3763 15.624C16.6263 18.0407 19.0847 20.0407 21.7513 21.624C21.8347 21.7073 21.918 21.7283 22.0013 21.687C22.0847 21.6457 22.168 21.6247 22.2513 21.624L23.5013 19.874C23.8347 19.374 24.2723 19.0823 24.8143 18.999C25.3563 18.9157 25.8773 19.0407 26.3773 19.374L31.0023 22.249C31.419 22.5823 31.69 22.999 31.8153 23.499C31.9407 23.999 31.878 24.499 31.6273 24.999L29.1273 28.999C29.044 29.1657 28.919 29.3323 28.7523 29.499C27.8357 30.249 26.5857 30.624 25.0023 30.624L25.0003 30.625ZM8.12534 3.125H7.87534L3.62534 5.5C2.87534 6.33334 2.66701 7.56267 3.00034 9.188C3.33367 10.8133 4.12534 12.6677 5.37534 14.751C6.79201 17.001 8.62534 19.1887 10.8753 21.314C13.1253 23.4393 15.417 25.1687 17.7503 26.502C19.917 27.752 21.8963 28.523 23.6883 28.815C25.4803 29.107 26.7513 28.9193 27.5013 28.252L30.1263 24.127C30.2097 23.9603 30.168 23.8353 30.0013 23.752L25.5013 20.877H25.1883C25.1883 20.877 25.1257 20.9187 25.0003 21.002L23.6253 22.752C23.292 23.1687 22.8543 23.4187 22.3123 23.502C21.7703 23.5853 21.291 23.502 20.8743 23.252C18.041 21.5853 15.416 19.4603 12.9993 16.877C11.416 15.2103 10.0827 13.5437 8.99934 11.877C8.66601 11.4603 8.56167 10.9603 8.68634 10.377C8.81101 9.79367 9.08201 9.377 9.49934 9.127L11.3743 7.877C11.4577 7.877 11.4993 7.83534 11.4993 7.752V7.502L8.37434 3.252C8.29101 3.16867 8.20767 3.127 8.12434 3.127L8.12534 3.125Z" fill="#A40731"/>
</svg>
