<svg width="152" height="51" viewBox="0 0 152 51" fill="none" xmlns="http://www.w3.org/2000/svg">
<path fill-rule="evenodd" clip-rule="evenodd" d="M146.342 42.3011C147.319 42.1657 148.295 42.7202 148.295 43.2343V46.3177H146.342L146.342 42.3011ZM142.843 41.3267H146.098V41.4083H151.143C151.143 43.0985 151.143 44.6271 151.143 46.3177C151.007 47.2236 150.424 47.6839 149.963 47.7382H146.098V50.4159H142.843L142.827 42.2574L142.306 41.9422L142.305 41.3024L142.843 41.3267ZM132.346 41.3267H136.13L136.743 41.814L136.781 46.3177H138.652V42.4222C138.083 42.4218 137.814 42.0296 137.868 41.3272L138.652 41.3267H142.115V47.7028H134.136C133.537 47.5793 133.154 47.1311 132.988 46.3585L132.961 42.4378L132.487 42.3802L132.346 41.3267ZM116.349 41.2153H119.351L119.344 42.1292C119.436 42.141 119.639 42.133 119.683 42.0964C120.118 41.7433 120.465 41.3763 121.374 41.2784L122.835 41.2834L122.836 43.4492L122.312 43.4449L122.306 43.1141C121.896 43.0427 120.919 42.9279 120.331 43.1629C120.088 43.2604 119.977 43.4706 119.897 43.6858V47.4359C120.083 47.4359 120.226 47.4359 120.213 47.7028H116.417L116.349 41.2153ZM123.242 41.3267H131.677V47.7028H123.242V41.3267ZM126.228 43.1524C126.96 42.0569 128.262 42.1385 128.913 43.1524V45.8709L128.506 46.277H126.594L126.228 45.8709V43.1524ZM109.44 43.0717C110.172 41.9762 111.474 42.0578 112.125 43.0717V45.7902L111.718 46.1963H109.806L109.44 45.7902V43.0717ZM112.834 41.1595H108.406C106.696 41.1595 106.88 42.2259 106.88 43.2625V46.3417C106.892 47.1181 107.554 47.9593 108.093 47.8899H111.23C111.638 47.723 111.869 47.4477 111.924 47.0647L112.353 47.0681C112.742 47.0711 111.956 49.0404 111.721 48.9976L107.786 49.0098L107.113 48.6411C107.001 48.5255 106.986 48.3061 106.905 48.3107L106.606 48.3292C106.216 48.3532 106.958 50.495 107.085 50.4954L108.031 50.4979L113.399 50.5C114.032 50.5 114.985 49.7358 114.993 48.8046L115.05 42.6694L115.586 42.2633L115.477 41.1602L112.834 41.1595ZM138.354 25.7927H142.829V29.8097H138.354C137.615 29.8097 137.011 29.2586 137.011 28.5848V27.0176C137.011 26.3437 137.615 25.7927 138.354 25.7927ZM131.691 16.7715H145.174C146.468 16.7715 150.929 17.4295 150.929 20.9769V31.5871C150.929 32.8805 151.403 32.448 151.524 32.6296C151.89 33.1797 151.686 33.379 151.353 33.3786L149.243 33.3761H143.684L143.358 31.9153L141.772 33.3761L132.342 33.3173C131.012 33.3089 129.557 31.7678 129.557 30.8161V24.7628C129.557 23.3222 130.998 22.3528 132.114 22.3406L142.659 22.2255L142.661 20.2762L131.189 20.2732L130.885 21.1523L130.208 21.1295V18.5018C130.208 17.5502 130.764 16.7715 131.691 16.7715ZM110.933 16.6102H119.501L119.482 18.9638C119.718 18.9936 120.242 18.9731 120.357 18.8793C121.475 17.9696 122.37 17.0251 124.709 16.7724L128.473 16.7851L128.476 22.3625L127.125 22.3524L127.111 21.4998C126.054 21.3162 123.537 21.0202 122.025 21.626C121.398 21.8765 121.112 22.4184 120.906 22.972V32.6296C121.386 32.6296 121.754 32.6296 121.719 33.3173H111.106C111.131 33.1701 111.106 32.9852 111.148 32.8469C111.191 32.7085 111.572 32.7535 111.602 32.6135C111.732 32.0158 111.924 31.4012 112.558 30.9766V19.0942C111.759 19.1184 111.743 18.4619 111.512 17.6375C111.497 17.5845 111.014 17.403 111.001 17.3471C110.957 17.157 110.96 16.8279 110.933 16.6102ZM92.7386 16.6102H101.306L101.287 18.9638C101.524 18.9936 102.048 18.9731 102.163 18.8793C103.281 17.9696 104.175 17.0251 106.515 16.7724L110.279 16.7851L110.281 22.3625L108.931 22.3524L108.916 21.4998C107.86 21.3162 105.343 21.0202 103.831 21.626C103.204 21.8765 102.917 22.4184 102.712 22.972V32.6296C103.191 32.6296 103.559 32.6296 103.525 33.3173H92.9113C92.9363 33.1701 92.9113 32.9852 92.9536 32.8469C92.9962 32.7085 93.3776 32.7535 93.4081 32.6135C93.5381 32.0158 93.7299 31.4012 94.3639 30.9766V19.0942C93.5644 19.1184 93.5487 18.4619 93.3177 17.6375C93.3029 17.5845 92.8192 17.403 92.8065 17.3471C92.763 17.157 92.766 16.8279 92.7386 16.6102ZM77.0559 22.1409V22.1002C77.0559 20.9395 77.8699 20.2741 78.8655 20.2741H81.6357C82.6312 20.2741 83.4452 20.9395 83.4452 22.1002L83.4443 22.1409L83.484 23.6421H77.017L77.0559 22.1409ZM74.619 16.6227H85.8838C88.1617 16.6227 91.1757 18.0482 91.1757 19.7872V26.9411H76.9236V28.7138C77.0221 29.1182 77.7246 29.658 78.1774 29.8467H89.7733L90.4445 29.0963H91.1757V30.1528C91.1757 31.8935 89.745 33.3173 87.9958 33.3173H72.507C70.7578 33.3173 69.3271 31.8935 69.3271 30.1528V19.7872C69.3271 18.0465 72.5851 16.6227 74.619 16.6227ZM10.983 25.7927H15.4584V29.8097H10.983C10.2442 29.8097 9.6402 29.2586 9.6402 28.5848V27.0176C9.6402 26.3437 10.2442 25.7927 10.983 25.7927ZM4.32035 16.7715H17.8036C19.0974 16.7715 23.5584 17.4295 23.5584 20.9769V31.5871C23.5584 32.8805 24.0324 32.448 24.1532 32.6296C24.5191 33.1797 24.315 33.379 23.9826 33.3786L21.8722 33.3761H16.3129L15.9873 31.9153L14.4007 33.3761L4.97167 33.3173C3.6416 33.3089 2.18641 31.7678 2.18641 30.8161V24.7628C2.18641 23.3222 3.62725 22.3528 4.74323 22.3406L15.2886 22.2255L15.2903 20.2762L3.81812 20.2732L3.51399 21.1523L2.8373 21.1295V18.5018C2.8373 17.5502 3.39276 16.7715 4.32035 16.7715ZM41.678 16.6227H33.3849C29.0667 16.6227 26.5593 18.5375 26.5593 20.4771V25.5493C26.5892 27.0008 28.2595 28.573 29.6175 28.4426H38.9628C39.0236 28.7798 39.1508 30.3394 38.7706 30.513L28.8445 30.5361L27.1481 29.8467C26.8634 29.631 26.8266 29.2207 26.6221 29.2296L25.8674 29.264C24.8835 29.3086 26.7565 33.3118 27.0766 33.3122L29.4629 33.3173H43.6068C45.2034 33.3173 46.5103 31.8931 46.5103 30.1528C46.5103 29.3213 46.5932 27.3653 46.4986 24.7102C46.4136 22.3209 42.3843 21.7353 41.3346 21.6945H34.0114L33.9708 20.1526H44.8744C45.5181 20.1034 45.8362 20.3796 45.8294 20.9807C46.1475 20.9807 46.4655 20.9807 46.784 20.9807C46.3583 19.0079 46.2586 16.7287 45.7442 16.717L41.678 16.6227ZM54.3777 13.1237H60.3344V16.933H66.6237V20.2421H60.3344V29.9312H66.4382L66.611 29.1708L67.3333 29.1602V33.3395L55.6977 33.2988C54.4377 33.4202 52.2686 31.7972 52.0405 30.6618V20.2421H49.398C49.7439 21.8883 49.9263 23.5946 49.9263 25.3425C49.9263 39.0607 38.7478 50.1853 24.963 50.1853C11.1785 50.1853 0 39.0607 0 25.3425C0 11.6246 11.1785 0.5 24.963 0.5C35.7821 0.5 44.9939 7.35236 48.4576 16.933H52.0405V14.513C53.1324 14.3945 54.2569 14.0291 54.3777 13.1237Z" fill="#A40731"/>
<path fill-rule="evenodd" clip-rule="evenodd" d="M48.8984 35.0823H152.001V36.9394H48.8984V35.0823Z" fill="#E8A412"/>
</svg>
